<?xml version="1.0" encoding="UTF-8"?>
<svg width="21px" height="23px" viewBox="0 0 21 23" version="1.1" xmlns="http://www.w3.org/2000/svg" xmlns:xlink="http://www.w3.org/1999/xlink">
    <!-- Generator: Sketch 53.2 (72643) - https://sketchapp.com -->
    <title>activityicon</title>
    <desc>Created with Sketch.</desc>
    <g id="Page-1" stroke="none" stroke-width="1" fill="none" fill-rule="evenodd">
        <g id="navigation" transform="translate(-252.000000, -13.000000)" fill="#333333" fill-rule="nonzero">
            <g id="Group-41">
                <g id="activityicon" transform="translate(252.000000, 13.000000)">
                    <path d="M8,21.4629797 L8,15 C8,14.4477153 7.55228475,14 7,14 L1.30121897,14 C0.748934219,14 0.301218969,13.5522847 0.301218969,13 C0.301218969,12.7467077 0.397337721,12.5028524 0.5701637,12.3176817 L11.2689447,0.854702073 C11.6457787,0.450951397 12.2785676,0.429131091 12.6823183,0.805965055 C12.8849533,0.995091119 13,1.25983872 13,1.53702032 L13,8 C13,8.55228475 13.4477153,9 14,9 L19.698781,9 C20.2510658,9 20.698781,9.44771525 20.698781,10 C20.698781,10.2532923 20.6026623,10.4971476 20.4298363,10.6823183 L9.73105527,22.1452979 C9.3542213,22.5490486 8.72143243,22.5708689 8.31768175,22.1940349 C8.11504668,22.0049089 8,21.7401613 8,21.4629797 Z" id="Path"></path>
                </g>
            </g>
        </g>
    </g>
</svg>