<?xml version="1.0" encoding="UTF-8"?>
<svg width="31px" height="31px" viewBox="0 0 31 31" version="1.1" xmlns="http://www.w3.org/2000/svg" xmlns:xlink="http://www.w3.org/1999/xlink">
    <!-- Generator: Sketch 53.2 (72643) - https://sketchapp.com -->
    <title>addicon</title>
    <desc>Created with Sketch.</desc>
    <defs>
        <linearGradient x1="-1.11022302e-14%" y1="50%" x2="99.5732478%" y2="50%" id="linearGradient-1">
            <stop stop-color="#25AFF6" offset="0%"></stop>
            <stop stop-color="#2ECEFA" offset="100%"></stop>
        </linearGradient>
    </defs>
    <g id="Page-1" stroke="none" stroke-width="1" fill="none" fill-rule="evenodd">
        <g id="navigation" transform="translate(-172.000000, -9.000000)" fill-rule="nonzero">
            <g id="Group-41">
                <g id="addicon" transform="translate(172.000000, 9.000000)">
                    <circle id="Oval" fill="url(#linearGradient-1)" cx="15.5" cy="15.5" r="15.5"></circle>
                    <g id="Group-33" transform="translate(8.000000, 8.000000)" fill="#FFFFFF">
                        <g id="Group-34">
                            <g id="Group-35">
                                <path d="M9,6 L13,6 C13.8284271,6 14.5,6.67157288 14.5,7.5 C14.5,8.32842712 13.8284271,9 13,9 L9,9 L9,13 C9,13.8284271 8.32842712,14.5 7.5,14.5 C6.67157288,14.5 6,13.8284271 6,13 L6,9 L2,9 C1.17157288,9 0.5,8.32842712 0.5,7.5 C0.5,6.67157288 1.17157288,6 2,6 L6,6 L6,2 C6,1.17157288 6.67157288,0.5 7.5,0.5 C8.32842712,0.5 9,1.17157288 9,2 L9,6 Z" id="Combined-Shape"></path>
                            </g>
                        </g>
                    </g>
                </g>
            </g>
        </g>
    </g>
</svg>