<?xml version="1.0" encoding="UTF-8"?>
<svg width="23px" height="23px" viewBox="0 0 23 23" version="1.1" xmlns="http://www.w3.org/2000/svg" xmlns:xlink="http://www.w3.org/1999/xlink">
    <!-- Generator: Sketch 53.2 (72643) - https://sketchapp.com -->
    <title>exploreicon</title>
    <desc>Created with Sketch.</desc>
    <g id="Page-1" stroke="none" stroke-width="1" fill="none" fill-rule="evenodd">
        <g id="navigation" transform="translate(-101.000000, -14.000000)" fill="#333333" fill-rule="nonzero">
            <g id="Group-41">
                <path d="M120.203664,30.375237 L123.363961,33.5355339 C124.14501,34.3165825 124.14501,35.5829124 123.363961,36.363961 C122.582912,37.1450096 121.316582,37.1450096 120.535534,36.363961 L117.375237,33.2036641 C115.698526,34.3377133 113.676606,35 111.5,35 C105.70101,35 101,30.2989899 101,24.5 C101,18.7010101 105.70101,14 111.5,14 C117.29899,14 122,18.7010101 122,24.5 C122,26.6766058 121.337713,28.6985262 120.203664,30.375237 Z M111.5,31 C115.089851,31 118,28.0898509 118,24.5 C118,20.9101491 115.089851,18 111.5,18 C107.910149,18 105,20.9101491 105,24.5 C105,28.0898509 107.910149,31 111.5,31 Z" id="exploreicon"></path>
            </g>
        </g>
    </g>
</svg>