<?xml version="1.0" encoding="UTF-8"?>
<svg width="25px" height="24px" viewBox="0 0 25 24" version="1.1" xmlns="http://www.w3.org/2000/svg" xmlns:xlink="http://www.w3.org/1999/xlink">
    <!-- Generator: Sketch 53.2 (72643) - https://sketchapp.com -->
    <title>feedicon</title>
    <desc>Created with Sketch.</desc>
    <g id="Page-1" stroke="none" stroke-width="1" fill="none" fill-rule="evenodd">
        <g id="navigation" transform="translate(-25.000000, -13.000000)" fill="#333333" fill-rule="nonzero">
            <g id="Group-41">
                <path d="M41.5,32.7427114 C41.5,30.5626676 39.678886,28.7953929 37.4988421,28.7953929 C35.3187983,28.7953929 33.5,30.5626676 33.5,32.7427114 L33.5,35.3789574 C33.4974107,36.1037992 32.7248464,37 32,37 L26.3147729,37 C25.5880916,37 24.999,36.1009384 24.999,35.3742571 L24.999,24.714083 C24.999,23.9623887 25.3204591,23.2465759 25.8822962,22.7471929 L36.630432,13.3323278 C36.8835577,13.1073398 37.1856382,12.9965905 37.5,13.0000799 C37.8047595,13.0034628 38.1218584,13.1142121 38.3672522,13.3323278 L49.1167046,22.7471929 C49.6785417,23.2465759 50,23.9623887 50,24.714083 L50,35.3742571 C50,36.1009384 49.4109084,37 48.6842271,37 L43,37 C42.2733187,37 41.5,36.1009384 41.5,35.3742571 L41.5,32.7427114 Z" id="feedicon"></path>
            </g>
        </g>
    </g>
</svg>